<svg width="800" height="600" xmlns="http://www.w3.org/2000/svg">
 <g id="Layer_1">
  <title>Layer 1</title>
  <g stroke="null">
   <title stroke="null">Icon-Architecture/64/Arch_Amazon-Managed-Streaming-for-Apache-Kafka_64</title>
   <g stroke="null" fill-rule="evenodd" fill="none" id="svg_3">
    <g stroke="null" fill="#8C4FFF" id="svg_5">
     <rect stroke="null" height="383.99999" width="383.99999" y="207" x="208" id="svg_6"/>
    </g>
    <path stroke="null" fill="#FFFFFF" id="svg_4" d="m380.83907,384.49003l0,-43.15502l9.58046,0l0,19.18003l12.92885,-19.18003l10.60555,0l-14.98382,20.17738l16.21973,22.97765l-11.36246,0l-13.40784,-20.85826l0,20.85826l-9.58046,0zm143.96092,58.27363l-3.20947,2.77632c-6.4668,5.6629 -15.16589,8.49672 -23.87453,8.49672c-8.70864,0 -17.42208,-2.83382 -23.89848,-8.51112l-6.39974,-5.54299c-9.38885,-8.22826 -25.82414,-8.22826 -35.19384,-0.0192l-6.4381,5.57659c-12.92885,11.33059 -34.82501,11.34019 -47.77301,-0.0144l-6.39974,-5.54299c-9.3889,-8.22826 -25.82419,-8.22826 -35.19389,-0.0192l-6.43805,5.57659c-12.92885,11.33059 -34.82505,11.34019 -47.77305,-0.0144l-3.19027,-2.76192l6.27043,-7.25482l3.20942,2.78107c9.39365,8.22826 25.82894,8.22826 35.19389,0.0192l6.43805,-5.58139c12.92885,-11.32579 34.82501,-11.32579 47.77301,0.0192l6.39979,5.54299c9.39365,8.22826 25.82894,8.22826 35.19384,0.0192l6.4381,-5.58139c12.92885,-11.32579 34.82501,-11.32579 47.77301,0.0192l6.39974,5.54299c9.38885,8.22826 25.82414,8.22826 35.19384,0.0192l3.22862,-2.80027l6.27043,7.25482zm-10.08826,57.70785l6.27043,7.25002l-3.20947,2.78112c-6.462,5.6629 -15.16109,8.49197 -23.86493,8.49197c-8.71344,0 -17.42688,-2.83387 -23.90808,-8.51117l-6.39974,-5.54299c-9.38885,-8.21866 -25.82414,-8.21866 -35.19384,-0.0192l-6.4381,5.58139c-12.91925,11.33059 -34.81541,11.33539 -47.77301,-0.0192l-6.39974,-5.54299c-9.3841,-8.21866 -25.81939,-8.21866 -35.19389,-0.0192l-6.43805,5.58139c-12.92405,11.33059 -34.82025,11.33539 -47.77301,-0.0192l-3.19032,-2.76192l6.27043,-7.25002l3.20942,2.78112c9.39365,8.21861 25.82899,8.22341 35.19389,0.01435l6.43805,-5.57659c12.93365,-11.32579 34.82025,-11.33059 47.77305,0.0144l6.39974,5.54784c9.39365,8.21861 25.82894,8.22341 35.19384,0.01435l6.4381,-5.57659c12.9336,-11.32579 34.82021,-11.33059 47.77301,0.0144l6.39974,5.54784c9.39365,8.21861 25.82894,8.22341 35.19389,0.01435l3.22858,-2.79547zm0,-30.40032l6.27043,7.24526l-3.20947,2.78107c-12.92405,11.33539 -34.82021,11.34019 -47.77301,-0.01435l-6.39974,-5.54304c-9.38885,-8.22821 -25.82414,-8.22341 -35.19384,-0.01915l-6.4381,5.58134c-6.46205,5.6629 -15.16589,8.49197 -23.86493,8.49197c-8.71344,0 -17.42688,-2.83387 -23.90808,-8.51112l-6.39974,-5.54304c-9.3841,-8.22821 -25.81939,-8.22341 -35.19389,-0.01915l-6.43805,5.58134c-12.9193,11.33059 -34.81545,11.33059 -47.77301,-0.01915l-3.19032,-2.76672l6.27043,-7.24526l3.20942,2.78112c9.39365,8.22821 25.82899,8.22341 35.19389,0.01435l6.43805,-5.57654c12.93365,-11.32579 34.82981,-11.33539 47.77305,0.01435l6.39974,5.54304c9.39365,8.23301 25.82894,8.22821 35.19384,0.01915l6.4381,-5.57654c12.9336,-11.32579 34.82981,-11.33539 47.77301,0.01435l6.39974,5.54304c9.39365,8.23301 25.82894,8.22821 35.19389,0.01915l3.22858,-2.79547zm-191.3555,-80.78616c5.28365,0 9.58046,4.30109 9.58046,9.58997c0,5.28893 -4.29682,9.59002 -9.58046,9.59002c-5.28365,0 -9.58046,-4.30109 -9.58046,-9.59002c0,-5.28888 4.29682,-9.58997 9.58046,-9.58997l0,0zm71.8535,-100.69502c5.28365,0 9.58051,4.30109 9.58051,9.58997c0,5.28893 -4.29686,9.59002 -9.58051,9.59002c-5.2836,0 -9.58046,-4.30109 -9.58046,-9.59002c0,-5.28888 4.29686,-9.58997 9.58046,-9.58997l0,0zm81.43401,110.28499c0,5.28893 -4.29682,9.59002 -9.58046,9.59002c-5.28365,0 -9.58046,-4.30109 -9.58046,-9.59002c0,-5.28888 4.29682,-9.58997 9.58046,-9.58997c5.28365,0 9.58046,4.30109 9.58046,9.58997l0,0zm-81.43401,-81.51499c3.19032,0 6.16027,-0.85829 8.80925,-2.24885l48.80294,71.05709c-1.99752,2.2345 -3.46334,4.92446 -4.23456,7.91179l-106.75521,0c-0.77122,-2.98733 -2.23704,-5.6773 -4.23456,-7.91179l48.80294,-71.05709c2.64898,1.39056 5.61893,2.24885 8.8092,2.24885l0,0zm-71.8535,100.69502c8.90026,0 16.33949,-6.13762 18.47592,-14.38502l106.75521,0c2.13643,8.24741 9.57566,14.38502 18.47592,14.38502c10.56725,0 19.16093,-8.60222 19.16093,-19.18003c0,-10.57776 -8.59368,-19.17998 -19.16093,-19.17998c-2.20829,0 -4.29686,0.45072 -6.27998,1.1412l-49.56456,-72.16953c1.98312,-3.01608 3.15197,-6.61234 3.15197,-10.4867c0,-10.57776 -8.59368,-19.17998 -19.16098,-19.17998c-10.56725,0 -19.16093,8.60222 -19.16093,19.17998c0,3.87437 1.16885,7.47062 3.15197,10.4867l-49.56456,72.16953c-1.98317,-0.69048 -4.0717,-1.1412 -6.27998,-1.1412c-10.56725,0 -19.16093,8.60222 -19.16093,19.17998c0,10.57781 8.59368,19.18003 19.16093,19.18003l0,0z"/>
   </g>
  </g>
  <g>
   <g>
    <path fill="#252F3E" d="m334.39654,78.4c0,3.7 0.4,6.7 1.1,8.9c0.8,2.2 1.8,4.6 3.2,7.2c0.5,0.8 0.7,1.6 0.7,2.3c0,1 -0.6,2 -1.9,3l-6.3,4.2c-0.9,0.6 -1.8,0.9 -2.6,0.9c-1,0 -2,-0.5 -3,-1.4c-1.4,-1.5 -2.6,-3.1 -3.6,-4.7c-1,-1.7 -2,-3.6 -3.1,-5.9c-7.8,9.2 -17.6,13.8 -29.4,13.8c-8.4,0 -15.1,-2.4 -20,-7.2c-4.9,-4.8 -7.4,-11.2 -7.4,-19.2c0,-8.5 3,-15.4 9.1,-20.6c6.1,-5.2 14.2,-7.8 24.5,-7.8c3.4,0 6.9,0.3 10.6,0.8c3.7,0.5 7.5,1.3 11.5,2.2l0,-7.3c0,-7.6 -1.6,-12.9 -4.7,-16c-3.2,-3.1 -8.6,-4.6 -16.3,-4.6c-3.5,0 -7.1,0.4 -10.8,1.3c-3.7,0.9 -7.3,2 -10.8,3.4c-1.6,0.7 -2.8,1.1 -3.5,1.3c-0.7,0.2 -1.2,0.3 -1.6,0.3c-1.4,0 -2.1,-1 -2.1,-3.1l0,-4.9c0,-1.6 0.2,-2.8 0.7,-3.5c0.5,-0.7 1.4,-1.4 2.8,-2.1c3.5,-1.8 7.7,-3.3 12.6,-4.5c4.9,-1.3 10.1,-1.9 15.6,-1.9c11.9,0 20.6,2.7 26.2,8.1c5.5,5.4 8.3,13.6 8.3,24.6l0,32.4l0.2,0zm-40.6,15.2c3.3,0 6.7,-0.6 10.3,-1.8c3.6,-1.2 6.8,-3.4 9.5,-6.4c1.6,-1.9 2.8,-4 3.4,-6.4c0.6,-2.4 1,-5.3 1,-8.7l0,-4.2c-2.9,-0.7 -6,-1.3 -9.2,-1.7c-3.2,-0.4 -6.3,-0.6 -9.4,-0.6c-6.7,0 -11.6,1.3 -14.9,4c-3.3,2.7 -4.9,6.5 -4.9,11.5c0,4.7 1.2,8.2 3.7,10.6c2.4,2.5 5.9,3.7 10.5,3.7zm80.3,10.8c-1.8,0 -3,-0.3 -3.8,-1c-0.8,-0.6 -1.5,-2 -2.1,-3.9l-23.5,-77.3c-0.6,-2 -0.9,-3.3 -0.9,-4c0,-1.6 0.8,-2.5 2.4,-2.5l9.8,0c1.9,0 3.2,0.3 3.9,1c0.8,0.6 1.4,2 2,3.9l16.8,66.2l15.6,-66.2c0.5,-2 1.1,-3.3 1.9,-3.9c0.8,-0.6 2.2,-1 4,-1l8,0c1.9,0 3.2,0.3 4,1c0.8,0.6 1.5,2 1.9,3.9l15.8,67l17.3,-67c0.6,-2 1.3,-3.3 2,-3.9c0.8,-0.6 2.1,-1 3.9,-1l9.3,0c1.6,0 2.5,0.8 2.5,2.5c0,0.5 -0.1,1 -0.2,1.6c-0.1,0.6 -0.3,1.4 -0.7,2.5l-24.1,77.3c-0.6,2 -1.3,3.3 -2.1,3.9c-0.8,0.6 -2.1,1 -3.8,1l-8.6,0c-1.9,0 -3.2,-0.3 -4,-1c-0.8,-0.7 -1.5,-2 -1.9,-4l-15.5,-64.5l-15.4,64.4c-0.5,2 -1.1,3.3 -1.9,4c-0.8,0.7 -2.2,1 -4,1l-8.6,0zm128.5,2.7c-5.2,0 -10.4,-0.6 -15.4,-1.8c-5,-1.2 -8.9,-2.5 -11.5,-4c-1.6,-0.9 -2.7,-1.9 -3.1,-2.8c-0.4,-0.9 -0.6,-1.9 -0.6,-2.8l0,-5.1c0,-2.1 0.8,-3.1 2.3,-3.1c0.6,0 1.2,0.1 1.8,0.3c0.6,0.2 1.5,0.6 2.5,1c3.4,1.5 7.1,2.7 11,3.5c4,0.8 7.9,1.2 11.9,1.2c6.3,0 11.2,-1.1 14.6,-3.3c3.4,-2.2 5.2,-5.4 5.2,-9.5c0,-2.8 -0.9,-5.1 -2.7,-7c-1.8,-1.9 -5.2,-3.6 -10.1,-5.2l-14.5,-4.5c-7.3,-2.3 -12.7,-5.7 -16,-10.2c-3.3,-4.4 -5,-9.3 -5,-14.5c0,-4.2 0.9,-7.9 2.7,-11.1c1.8,-3.2 4.2,-6 7.2,-8.2c3,-2.3 6.4,-4 10.4,-5.2c4,-1.2 8.2,-1.7 12.6,-1.7c2.2,0 4.5,0.1 6.7,0.4c2.3,0.3 4.4,0.7 6.5,1.1c2,0.5 3.9,1 5.7,1.6c1.8,0.6 3.2,1.2 4.2,1.8c1.4,0.8 2.4,1.6 3,2.5c0.6,0.8 0.9,1.9 0.9,3.3l0,4.7c0,2.1 -0.8,3.2 -2.3,3.2c-0.8,0 -2.1,-0.4 -3.8,-1.2c-5.7,-2.6 -12.1,-3.9 -19.2,-3.9c-5.7,0 -10.2,0.9 -13.3,2.8c-3.1,1.9 -4.7,4.8 -4.7,8.9c0,2.8 1,5.2 3,7.1c2,1.9 5.7,3.8 11,5.5l14.2,4.5c7.2,2.3 12.4,5.5 15.5,9.6c3.1,4.1 4.6,8.8 4.6,14c0,4.3 -0.9,8.2 -2.6,11.6c-1.8,3.4 -4.2,6.4 -7.3,8.8c-3.1,2.5 -6.8,4.3 -11.1,5.6c-4.5,1.4 -9.2,2.1 -14.3,2.1z" class="st0"/>
    <g>
     <path fill="#FF9900" clip-rule="evenodd" fill-rule="evenodd" d="m521.49654,155.7c-32.9,24.3 -80.7,37.2 -121.8,37.2c-57.6,0 -109.5,-21.3 -148.7,-56.7c-3.1,-2.8 -0.3,-6.6 3.4,-4.4c42.4,24.6 94.7,39.5 148.8,39.5c36.5,0 76.6,-7.6 113.5,-23.2c5.5,-2.5 10.2,3.6 4.8,7.6z" class="st1"/>
     <path fill="#FF9900" clip-rule="evenodd" fill-rule="evenodd" d="m535.19654,140.1c-4.2,-5.4 -27.8,-2.6 -38.5,-1.3c-3.2,0.4 -3.7,-2.4 -0.8,-4.5c18.8,-13.2 49.7,-9.4 53.3,-5c3.6,4.5 -1,35.4 -18.6,50.2c-2.7,2.3 -5.3,1.1 -4.1,-1.9c4,-9.9 12.9,-32.2 8.7,-37.5z" class="st1"/>
    </g>
   </g>
  </g>
 </g>

</svg>